<svg data-v-423bf9ae="" xmlns="http://www.w3.org/2000/svg" viewBox="0 0 600 90" class="iconLeft"><!----><!----><!----><g data-v-423bf9ae="" id="1c63de5a-a88b-4379-9b5f-04e81c33f1e0" fill="black" transform="matrix(5.272407679843658,0,0,5.272407679843658,149.00911353132608,18.69068370371315)"><path d="M8.64-0.42L5.52 7.15L5.52 10.50L3.25 10.50L3.25 7.15L0.11-0.42L2.59-0.42L4.38 4.35L6.16-0.42L8.64-0.42ZM12.64 10.68L12.64 10.68L12.64 10.68Q10.92 10.68 10.04 9.70L10.04 9.70L10.04 9.70Q9.17 8.72 9.17 7.04L9.17 7.04L9.17 6.54L9.17 6.54Q9.17 4.86 10.04 3.88L10.04 3.88L10.04 3.88Q10.92 2.90 12.64 2.90L12.64 2.90L12.64 2.90Q14.38 2.90 15.25 3.88L15.25 3.88L15.25 3.88Q16.11 4.86 16.11 6.54L16.11 6.54L16.11 7.04L16.11 7.04Q16.11 8.72 15.25 9.70L15.25 9.70L15.25 9.70Q14.38 10.68 12.64 10.68ZM11.38 7.04L11.38 7.04Q11.38 8.78 12.64 8.78L12.64 8.78L12.64 8.78Q13.90 8.78 13.90 7.04L13.90 7.04L13.90 6.54L13.90 6.54Q13.90 4.80 12.64 4.80L12.64 4.80L12.64 4.80Q11.38 4.80 11.38 6.54L11.38 6.54L11.38 7.04ZM17.21 8.11L17.21 3.08L19.40 3.08L19.40 7.74L19.40 7.74Q19.40 8.78 20.38 8.78L20.38 8.78L20.38 8.78Q21.21 8.78 21.69 8.08L21.69 8.08L21.69 3.08L23.90 3.08L23.90 8.40L24.02 10.50L22.05 10.50L21.88 9.56L21.88 9.56Q21.07 10.68 19.50 10.68L19.50 10.68L19.50 10.68Q18.31 10.68 17.76 9.95L17.76 9.95L17.76 9.95Q17.21 9.23 17.21 8.11L17.21 8.11ZM31.67 6.58L30.51 6.58L30.51 10.50L28.24 10.50L28.24-0.42L31.82-0.42L31.82-0.42Q32.42-0.42 32.91-0.35L32.91-0.35L32.91-0.35Q33.39-0.28 33.91-0.07L33.91-0.07L33.91-0.07Q34.44 0.14 34.80 0.50L34.80 0.50L34.80 0.50Q35.15 0.85 35.38 1.48L35.38 1.48L35.38 1.48Q35.62 2.10 35.62 2.94L35.62 2.94L35.62 3.22L35.62 3.22Q35.62 5.54 33.89 6.26L33.89 6.26L35.62 10.50L33.17 10.50L31.67 6.58ZM30.51 1.54L30.51 4.62L31.92 4.62L31.92 4.62Q33.32 4.62 33.32 3.15L33.32 3.15L33.32 3.01L33.32 3.01Q33.32 1.54 31.92 1.54L31.92 1.54L30.51 1.54ZM39.14 10.50L36.93 10.50L36.93 3.08L39.14 3.08L39.14 10.50ZM36.88-0.31L39.20-0.31L39.20 2.03L36.88 2.03L36.88-0.31ZM42.53 6.54L42.53 7.04L42.53 7.04Q42.53 8.78 43.72 8.78L43.72 8.78L43.72 8.78Q44.24 8.78 44.51 8.50L44.51 8.50L44.51 8.50Q44.79 8.22 44.79 7.76L44.79 7.76L46.87 7.76L46.87 8.06L46.87 8.06Q46.87 9.25 46.05 9.97L46.05 9.97L46.05 9.97Q45.23 10.68 43.68 10.68L43.68 10.68L43.68 10.68Q41.99 10.68 41.15 9.70L41.15 9.70L41.15 9.70Q40.32 8.72 40.32 7.04L40.32 7.04L40.32 6.54L40.32 6.54Q40.32 4.86 41.15 3.88L41.15 3.88L41.15 3.88Q41.99 2.90 43.68 2.90L43.68 2.90L43.68 2.90Q45.23 2.90 46.05 3.64L46.05 3.64L46.05 3.64Q46.87 4.38 46.87 5.64L46.87 5.64L46.87 5.96L44.79 5.96L44.79 5.96Q44.79 4.80 43.72 4.80L43.72 4.80L43.72 4.80Q42.53 4.80 42.53 6.54L42.53 6.54ZM48.03-0.70L50.25-0.70L50.25 3.79L50.25 3.79Q51.04 2.90 52.43 2.90L52.43 2.90L52.43 2.90Q53.61 2.90 54.17 3.63L54.17 3.63L54.17 3.63Q54.73 4.35 54.73 5.47L54.73 5.47L54.73 10.50L52.53 10.50L52.53 5.84L52.53 5.84Q52.53 4.80 51.55 4.80L51.55 4.80L51.55 4.80Q50.69 4.80 50.25 5.50L50.25 5.50L50.25 10.50L48.03 10.50L48.03-0.70ZM62.41 6.58L61.25 6.58L61.25 10.50L58.98 10.50L58.98-0.42L62.57-0.42L62.57-0.42Q63.17-0.42 63.65-0.35L63.65-0.35L63.65-0.35Q64.13-0.28 64.66-0.07L64.66-0.07L64.66-0.07Q65.18 0.14 65.54 0.50L65.54 0.50L65.54 0.50Q65.90 0.85 66.13 1.48L66.13 1.48L66.13 1.48Q66.36 2.10 66.36 2.94L66.36 2.94L66.36 3.22L66.36 3.22Q66.36 5.54 64.64 6.26L64.64 6.26L66.36 10.50L63.91 10.50L62.41 6.58ZM61.25 1.54L61.25 4.62L62.66 4.62L62.66 4.62Q64.06 4.62 64.06 3.15L64.06 3.15L64.06 3.01L64.06 3.01Q64.06 1.54 62.66 1.54L62.66 1.54L61.25 1.54ZM69.89 10.50L67.68 10.50L67.68 3.08L69.89 3.08L69.89 10.50ZM67.62-0.31L69.94-0.31L69.94 2.03L67.62 2.03L67.62-0.31ZM73.28 6.54L73.28 7.04L73.28 7.04Q73.28 8.78 74.47 8.78L74.47 8.78L74.47 8.78Q74.98 8.78 75.26 8.50L75.26 8.50L75.26 8.50Q75.53 8.22 75.53 7.76L75.53 7.76L77.62 7.76L77.62 8.06L77.62 8.06Q77.62 9.25 76.80 9.97L76.80 9.97L76.80 9.97Q75.98 10.68 74.42 10.68L74.42 10.68L74.42 10.68Q72.73 10.68 71.90 9.70L71.90 9.70L71.90 9.70Q71.06 8.72 71.06 7.04L71.06 7.04L71.06 6.54L71.06 6.54Q71.06 4.86 71.90 3.88L71.90 3.88L71.90 3.88Q72.73 2.90 74.42 2.90L74.42 2.90L74.42 2.90Q75.98 2.90 76.80 3.64L76.80 3.64L76.80 3.64Q77.62 4.38 77.62 5.64L77.62 5.64L77.62 5.96L75.53 5.96L75.53 5.96Q75.53 4.80 74.47 4.80L74.47 4.80L74.47 4.80Q73.28 4.80 73.28 6.54L73.28 6.54ZM78.78-0.70L80.99-0.70L80.99 3.79L80.99 3.79Q81.79 2.90 83.17 2.90L83.17 2.90L83.17 2.90Q84.35 2.90 84.91 3.63L84.91 3.63L84.91 3.63Q85.47 4.35 85.47 5.47L85.47 5.47L85.47 10.50L83.27 10.50L83.27 5.84L83.27 5.84Q83.27 4.80 82.29 4.80L82.29 4.80L82.29 4.80Q81.44 4.80 80.99 5.50L80.99 5.50L80.99 10.50L78.78 10.50L78.78-0.70Z"></path></g><!----><g data-v-423bf9ae="" id="8c99574c-45df-42f4-9165-02b3061288d3" transform="matrix(1.295877736340037,0,0,1.295877736340037,0.2054656000534294,-19.519532309725662)" stroke="none" fill="black"><path d="M46.097 26.559c-10.471 0-18.96 8.489-18.96 18.96s8.489 18.96 18.96 18.96c10.47 0 18.96-8.489 18.96-18.96s-8.49-18.96-18.96-18.96zm7.816 22.466c0 3.583-2.262 5.503-5.445 6.034v3.074a1.795 1.795 0 0 1-3.59 0v-3.026a13.61 13.61 0 0 1-5.558-2.067 2.172 2.172 0 0 1-1.038-1.862c0-1.22.933-2.152 2.151-2.152.395 0 .788.108 1.075.287 1.83 1.146 3.657 1.722 5.2 1.722 1.578 0 2.295-.575 2.295-1.434v-.074c0-1.182-1.866-1.576-3.982-2.223-2.689-.787-5.736-2.043-5.736-5.772v-.073c0-3.41 2.405-5.509 5.593-5.989v-2.566a1.796 1.796 0 1 1 3.59 0v2.681c1.304.234 2.595.65 3.798 1.252.789.395 1.29 1.109 1.29 2.044 0 1.219-.968 2.151-2.188 2.151-.393 0-.645-.072-1.002-.253-1.543-.754-3.012-1.218-4.159-1.218-1.327 0-2.009.573-2.009 1.327v.071c0 1.075 1.83 1.576 3.91 2.294 2.689.896 5.807 2.189 5.807 5.703v.069zm38.281 7.872V24.432c0-5.048-4.106-9.157-9.155-9.157H9.156C4.106 15.274 0 19.384 0 24.432v42.172c0 5.05 4.106 9.157 9.156 9.157h62.456c2.263 5.271 7.497 8.965 13.595 8.965 8.17 0 14.794-6.624 14.794-14.793-.001-5.64-3.16-10.542-7.807-13.036zM70.415 69.933c0 .149.018.293.022.442H12.266c.095-.408.158-.828.158-1.265a5.562 5.562 0 0 0-5.562-5.562c-.516 0-1.003.093-1.476.223V27.267c.473.13.96.223 1.476.223a5.562 5.562 0 0 0 5.562-5.562c0-.437-.063-.857-.158-1.267h67.663c-.095.409-.158.83-.158 1.267a5.563 5.563 0 0 0 5.563 5.562c.514 0 1.003-.093 1.475-.223v27.965a14.607 14.607 0 0 0-1.603-.091c-8.167 0-14.791 6.624-14.791 14.792zm19.851 4.706a5.857 5.857 0 0 1-3.095 1.433v2.025a1.346 1.346 0 0 1-2.693 0v-2.103c-2.817-.639-4.781-3.086-4.781-6.084v-.035c0-2.949 1.904-5.426 4.781-6.098v-2.006a1.348 1.348 0 0 1 2.693 0v1.89c1.226.162 2.155.575 2.938 1.157.278.207.522.59.522 1.06 0 .73-.593 1.304-1.322 1.304-.365 0-.606-.14-.8-.261-.715-.531-1.466-.833-2.365-.859-.104.026-.205.065-.318.065-.062 0-.116-.028-.176-.035-1.85.196-3.154 1.795-3.154 3.748v.035c0 2.087 1.441 3.826 3.527 3.826 1.13 0 1.88-.348 2.643-.958.209-.173.487-.294.802-.294.676 0 1.251.556 1.251 1.234a1.27 1.27 0 0 1-.453.956zM76.022 38.16c-4.058 0-7.358 3.302-7.358 7.358 0 4.058 3.301 7.358 7.358 7.358 4.057 0 7.356-3.301 7.356-7.358.001-4.056-3.299-7.358-7.356-7.358zm0 11.126a3.772 3.772 0 0 1-3.769-3.768 3.773 3.773 0 0 1 3.769-3.768 3.772 3.772 0 0 1 3.766 3.768 3.77 3.77 0 0 1-3.766 3.768zM16.172 38.16c-4.057 0-7.357 3.302-7.357 7.358 0 4.058 3.3 7.358 7.357 7.358s7.36-3.301 7.36-7.358c.001-4.056-3.303-7.358-7.36-7.358zm0 11.126a3.77 3.77 0 0 1-3.766-3.768 3.772 3.772 0 0 1 3.766-3.768c2.079 0 3.77 1.69 3.77 3.768a3.772 3.772 0 0 1-3.77 3.768z"></path></g><!----></svg>